<svg viewBox="0 0 1440 320" preserveAspectRatio="none" class="relative block w-full h-full" xmlns="http://www.w3.org/2000/svg"><defs><linearGradient id="waveGradient" x1="0%" y1="0%" x2="100%" y2="0%"><stop offset="0%" stop-color="rgba(91, 79, 217, 0.1)"></stop><stop offset="50%" stop-color="rgba(129, 140, 248, 0.15)"></stop><stop offset="100%" stop-color="rgba(236, 72, 153, 0.1)"></stop></linearGradient></defs><path fill="url(#waveGradient)" d="M0,96L60,112C120,128,240,160,360,165.3C480,171,600,149,720,144C840,139,960,149,1080,144C1200,139,1320,117,1380,106.7L1440,96L1440,320L1380,320C1320,320,1200,320,1080,320C960,320,840,320,720,320C600,320,480,320,360,320C240,320,120,320,60,320L0,320Z"></path></svg>